<svg width="323" height="87" viewBox="0 0 323 87" fill="none" xmlns="http://www.w3.org/2000/svg">
<path d="M131.388 80.042C126.357 80.042 121.888 79.4222 117.971 78.1878C114.055 76.9378 110.789 75.3076 108.18 73.292C105.565 71.2816 103.565 69.0628 102.18 66.6462L110.055 57.0212H111.305C113.482 60.2607 116.253 62.8441 119.617 64.7712C122.977 66.6878 126.898 67.6462 131.388 67.6462C135.232 67.6462 138.128 66.8337 140.076 65.2087C142.034 63.5837 143.013 61.3493 143.013 58.5003C143.013 56.7816 142.69 55.3441 142.055 54.1878C141.43 53.0368 140.388 52.0524 138.93 51.2295C137.482 50.3962 135.518 49.6826 133.034 49.0837L123.701 46.9378C117.185 45.4535 112.331 42.9795 109.138 39.5212C105.94 36.0628 104.346 31.5785 104.346 26.0628C104.346 21.9535 105.372 18.3441 107.43 15.2295C109.482 12.1201 112.471 9.70866 116.388 8.00033C120.305 6.28158 124.992 5.41699 130.451 5.41699C136.044 5.41699 140.836 6.15658 144.826 7.62533C148.81 9.09928 152.169 11.3545 154.909 14.3962L147.826 24.1253H146.576C144.534 21.9743 142.185 20.3649 139.534 19.292C136.893 18.2087 133.867 17.667 130.451 17.667C126.518 17.667 123.523 18.3649 121.471 19.7503C119.414 21.141 118.388 23.0576 118.388 25.5003C118.388 27.792 119.107 29.6201 120.555 30.9795C121.997 32.3285 124.482 33.3857 128.013 34.1462L137.555 36.1253C144.596 37.6149 149.701 40.1357 152.867 43.6878C156.044 47.2451 157.638 51.8857 157.638 57.6045C157.638 62.1462 156.659 66.0993 154.701 69.4587C152.753 72.8076 149.81 75.4118 145.867 77.2712C141.935 79.1149 137.107 80.042 131.388 80.042Z" fill="white"/>
<path d="M193.368 80.042C188.004 80.042 183.296 78.9482 179.243 76.7503C175.186 74.542 172.04 71.3128 169.806 67.0628C167.582 62.8128 166.473 57.6826 166.473 51.667C166.473 45.641 167.582 40.4951 169.806 36.2295C172.04 31.9691 175.186 28.7399 179.243 26.542C183.296 24.3337 188.004 23.2295 193.368 23.2295C198.728 23.2295 203.431 24.3337 207.473 26.542C211.525 28.7399 214.681 31.9691 216.931 36.2295C219.181 40.4951 220.306 45.641 220.306 51.667C220.306 57.6826 219.181 62.8128 216.931 67.0628C214.681 71.3128 211.525 74.542 207.473 76.7503C203.431 78.9482 198.728 80.042 193.368 80.042ZM193.368 68.3753C201.868 68.3753 206.118 62.8076 206.118 51.667C206.118 45.8753 205.02 41.6357 202.827 38.9378C200.645 36.2451 197.493 34.8962 193.368 34.8962C184.868 34.8962 180.618 40.4899 180.618 51.667C180.618 62.8076 184.868 68.3753 193.368 68.3753Z" fill="white"/>
<path d="M233.059 78.9997V24.2705H246.392V32.3955L247.434 32.6038C248.767 29.5622 250.501 27.333 252.642 25.9163C254.793 24.4893 257.413 23.7705 260.496 23.7705C263.605 23.7705 265.965 24.3018 267.579 25.3538L265.267 37.208L264.225 37.4163C263.319 37.057 262.454 36.7913 261.621 36.6247C260.798 36.458 259.793 36.3747 258.6 36.3747C254.767 36.3747 251.835 37.7236 249.809 40.4163C247.793 43.1143 246.788 47.4372 246.788 53.3955V78.9997H233.059Z" fill="white"/>
<path d="M275.975 79.0003V2.29199H289.704V44.8545H291.058L306.891 24.2712H320.829V25.417L302.225 49.417L322.912 77.7503V79.0003H308.412L291.058 55.917H289.704V79.0003H275.975Z" fill="white"/>
<mask id="mask0_64_34" style="mask-type:luminance" maskUnits="userSpaceOnUse" x="1" y="0" width="82" height="24">
<path d="M1.125 0.338867H82.0052V23.2712H1.125V0.338867Z" fill="white"/>
</mask>
<g mask="url(#mask0_64_34)">
<path d="M1.125 0.338867H82.0104V23.2712H1.125V0.338867Z" fill="#FFBD59"/>
</g>
<mask id="mask1_64_34" style="mask-type:luminance" maskUnits="userSpaceOnUse" x="20" y="32" width="67" height="23">
<path d="M20.7598 32.5361H86.8223V54.5934H20.7598V32.5361Z" fill="white"/>
</mask>
<g mask="url(#mask1_64_34)">
<path d="M20.7598 32.5361H86.8431V54.5934H20.7598V32.5361Z" fill="#FFDE59"/>
</g>
<mask id="mask2_64_34" style="mask-type:luminance" maskUnits="userSpaceOnUse" x="0" y="64" width="57" height="23">
<path d="M0.759766 64.0107H56.3535V86.068H0.759766V64.0107Z" fill="white"/>
</mask>
<g mask="url(#mask2_64_34)">
<path d="M0.759766 64.0107H56.3327V86.068H0.759766V64.0107Z" fill="#FFBD59"/>
</g>
</svg>
